<svg xmlns="http://www.w3.org/2000/svg" version="1.1" xmlns:xlink="http://www.w3.org/1999/xlink" width="100%" height="100%" id="svgWorkerArea" viewBox="-25 -25 625 625" xmlns:idraw="https://idraw.muisca.co" style="background: white;"><defs id="defsdoc"><pattern id="patternBool" x="0" y="0" width="10" height="10" patternUnits="userSpaceOnUse" patternTransform="rotate(35)"><circle cx="5" cy="5" r="4" style="stroke: none;fill: #ff000070;"></circle></pattern></defs><g id="fileImp-236375114" class="cosito"><path id="circleImp-320768750" opacity=".63" class="grouped" style="fill:#ececec;opacity:1" d="M62.5 250C62.5 146.4088 146.4088 62.5 249.9999 62.5 353.5912 62.5 437.4999 146.4088 437.4999 250 437.4999 353.5912 353.5912 437.4999 249.9999 437.5 146.4088 437.4999 62.5 353.5912 62.5 250 62.5 249.9999 62.5 249.9999 62.5 250"></path><path id="pathImp-829539834" class="grouped" style="fill:none;stroke-linecap:round;stroke-linejoin:round;stroke-width:8;stroke:#a0a5af" d="M164.7727 250C164.7727 249.9999 207.3863 156.2499 207.3863 156.25 207.3863 156.2499 275.5681 326.7045 275.5681 326.7045 275.5681 326.7045 301.1363 258.5227 301.1363 258.5227 301.1363 258.5227 326.7045 326.7045 326.7045 326.7045 326.7045 326.7045 352.2727 258.5227 352.2727 258.5227"></path><path id="pathImp-979193387" class="grouped" style="fill:none;stroke-linejoin:round;stroke-width:8;stroke:#a0a5af" d="M181.8181 215.9091C181.8181 215.909 232.9545 215.909 232.9545 215.9091"></path><path id="pathImp-204097045" class="grouped" style="fill:none;stroke-linecap:round;stroke-linejoin:round;stroke-width:4;stroke:#56595b" d="M173.2954 318.1818C173.2954 318.1818 249.9999 258.5227 249.9999 258.5227 249.9999 258.5227 301.1363 198.8636 301.1363 198.8636"></path><path id="circleImp-150427568" class="grouped" style="fill:#56595b;paint-order:stroke fill markers;stroke-linejoin:round;stroke-width:8" d="M224.4318 258.5227C224.4318 244.3967 235.874 232.9545 249.9999 232.9545 264.1259 232.9545 275.5681 244.3967 275.5681 258.5227 275.5681 272.6487 264.1259 284.0909 249.9999 284.0909 235.874 284.0909 224.4318 272.6487 224.4318 258.5227 224.4318 258.5227 224.4318 258.5227 224.4318 258.5227"></path></g></svg>